<svg xmlns="http://www.w3.org/2000/svg" xmlns:xlink="http://www.w3.org/1999/xlink" width="48" height="48"><path d="M48 24a24 24 0 11-48 0 24 24 0 1148 0z" fill="#fff" fill-rule="evenodd"/><path d="M43.955 23.933a20.022 20.022 0 11-40.045 0 20.022 20.022 0 1140.045 0z" fill="green" fill-rule="evenodd"/><path d="M40 24a16 16 0 11-32 0 16 16 0 1132 0z" fill="#fff" fill-rule="evenodd"/><path id="a" d="M19 18a4 3.966 0 11-8 0 4 3.966 0 118 0z" transform="translate(2)" fill="green" fill-opacity="1" fill-rule="evenodd" stroke="none" stroke-width="1" stroke-linecap="butt" stroke-linejoin="miter" stroke-opacity="1"/><path d="M13 27c6 8 16 8 22 0" fill="none" stroke="green" stroke-width="4" stroke-linecap="round"/><use xlink:href="#a" transform="translate(14)" width="48" height="48"/></svg>