<svg xmlns="http://www.w3.org/2000/svg" width="163" height="36" viewBox="0 0 201 42"><path d="M16.926.181q8.7 0 14.52 6.06 5.88 6 5.88 14.94t-5.88 15q-5.82 6-14.52 6H.126v-42h16.8zm0 32.76q4.98 0 8.04-3.18 3.12-3.24 3.12-8.58t-3.12-8.52q-3.06-3.24-8.04-3.24h-7.2v23.52h7.2zm35.717 0h16.8v9.24h-26.4v-42h26.1v9.24h-16.5v6.96h15v9.12h-15v7.44zm32.497 9.24l-13.68-42h10.5l9.3 30.9 9.3-30.9h10.5l-13.68 42H85.14zm29.79-42h9.6v42h-9.6v-42zm37.058 42.84q-9.42 0-15.66-6.24-6.18-6.3-6.18-15.6t6.18-15.54q6.24-6.3 15.66-6.3 5.64 0 10.44 2.64 4.8 2.58 7.56 7.08l-8.28 4.8q-1.38-2.46-3.96-3.78-2.58-1.38-5.76-1.38-5.58 0-8.94 3.42-3.3 3.42-3.3 9.06 0 5.64 3.3 9.06 3.36 3.42 8.94 3.42 3.18 0 5.76-1.38 2.64-1.38 3.96-3.78l8.28 4.8q-2.7 4.5-7.5 7.14-4.8 2.58-10.5 2.58zm32.359-10.08h16.8v9.24h-26.4v-42h26.1v9.24h-16.5v6.96h15v9.12h-15v7.44z"/></svg>